:SAMPLES-PER-SECOND 30
:FULLY-SPECIFIED
:DEGREES
277
root  10.1516 35.1534 -29.4328 -43.6686 86.1123 -65.4021
RightUpLeg  -23.0723 -4.14265 5.07402
RightLeg  8.05471 11.7739 0.897173
RightFoot  9.32888 -0.125541 2.00816
RightToes  -29.986 -0.143825 -0.251869
Spine  -0.338005 -5.7603 -4.54518
Spine1  -0.277304 -11.8355 -7.99058
HEad  -58.6891 36.389 -19.8035
LeftShoulder1  -1.94126e-019 -3.10601e-018 -2.51263e-017
LeftArm  -25.0215 -22.5763 -26.6831
LeftForeArm  54.8254 -34.9184 -4.69397
LeftHand  -1.7508 -4.27932 21.0982
RightShoulder  -4.96962e-017 0 -2.36833e-017
RightArm  -67.2992 -0.803087 36.0065
RightForeArm  48.6491 74.1419 36.3294
RightHand  0.629478 -8.00264 -27.6534
LeftUpLeg  -20.6948 21.2419 13.0914
LeftLeg  31.8134 14.1163 7.42464
LeftFoot  2.94863 -0.0200984 0.942459
LeftToes  -40.2204 1.9075e-006 4.29692e-008
278
root  11.1083 35.6559 -29.3158 -65.3099 87.399 -87.5643
RightUpLeg  -19.3185 -6.81177 4.99778
RightLeg  2.47103 11.1507 -0.231733
RightFoot  14.1264 -0.289836 2.8133
RightToes  -34.224 -0.174063 -0.280226
Spine  -0.811367 -4.44961 -5.33138
Spine1  -1.21175 -9.18854 -9.61163
HEad  -57.0353 33.5648 -22.3072
LeftShoulder1  -1.94126e-019 -3.10601e-018 -2.51263e-017
LeftArm  -19.8617 -21.2556 -33.9629
LeftForeArm  59.2159 -46.5822 -7.75824
LeftHand  -1.84144 -3.01382 25.3357
RightShoulder  -4.96962e-017 0 -2.36833e-017
RightArm  -78.4287 1.56128 25.7724
RightForeArm  64.3842 77.6877 49.5325
RightHand  0.643786 -7.88606 -29.4064
LeftUpLeg  -26.0396 19.6372 11.9032
LeftLeg  31.8081 14.5857 7.66194
LeftFoot  6.1117 -0.092981 1.90313
LeftToes  -41.5136 1.9075e-006 4.29692e-008
279
root  12.092 35.7486 -29.2301 -93.9399 87.4819 -115.636
RightUpLeg  -16.945 -8.73829 4.77025
RightLeg  4.10028 8.61155 0.0645329
RightFoot  13.1017 -0.176888 2.02903
RightToes  -37.324 -0.197467 -0.299512
Spine  -0.848109 -2.94617 -5.84085
Spine1  -1.42412 -6.07812 -10.8211
HEad  -55.4216 31.4354 -23.7637
LeftShoulder1  -1.94126e-019 -3.10601e-018 -2.51263e-017
LeftArm  -15.217 -20.6798 -41.4388
LeftForeArm  59.5258 -53.372 -10.3675
LeftHand  -1.81127 -2.36008 26.944
RightShoulder  -4.96962e-017 0 -2.36833e-017
RightArm  -88.0972 7.7512 15.4718
RightForeArm  74.0089 78.8174 55.3294
RightHand  0.432445 -7.02868 -30.0439
LeftUpLeg  -30.3346 16.3642 12.5822
LeftLeg  31.994 11.6472 6.20222
LeftFoot  10.1922 -0.207223 2.4849
LeftToes  -45.2022 1.9075e-006 4.29692e-008
280
root  13.2 35.4661 -29.2417 -84.5478 87.3062 -104.299
RightUpLeg  -13.5982 -8.08183 3.98314
RightLeg  5.72335 8.98507 0.321123
RightFoot  10.13 -0.103692 1.65601
RightToes  -40.9216 -0.225887 -0.320269
Spine  -0.66677 -1.08829 -6.22515
Spine1  -1.35467 -2.26093 -11.7669
HEad  -54.3471 31.2149 -24.6205
LeftShoulder1  -1.94126e-019 -3.10601e-018 -2.51263e-017
LeftArm  -10.9753 -18.2875 -48.5297
LeftForeArm  58.3448 -59.593 -13.7852
LeftHand  -1.8271 -2.77151 25.8597
RightShoulder  -4.96962e-017 0 -2.36833e-017
RightArm  -92.9687 17.0095 7.23245
RightForeArm  73.7343 78.8342 55.3731
RightHand  0.537532 -7.35377 -31.0236
LeftUpLeg  -32.8294 16.9825 12.9939
LeftLeg  32.324 7.8822 4.27855
LeftFoot  12.7296 -0.217406 2.11039
LeftToes  -48.2075 1.9075e-006 4.29692e-008
281
root  14.43 34.8852 -29.3317 -74.7235 87.2696 -92.395
RightUpLeg  -11.1937 -7.64212 3.5525
RightLeg  9.47461 7.48533 0.758925
RightFoot  4.06046 -0.00533059 0.638634
RightToes  -38.9428 -0.210094 -0.309073
Spine  -0.634411 0.904486 -6.7051
Spine1  -1.77793 1.90323 -12.9111
HEad  -53.1369 31.2317 -23.1192
LeftShoulder1  -1.94126e-019 -3.10601e-018 -2.51263e-017
LeftArm  -5.97 -14.7471 -55.3593
LeftForeArm  58.1972 -64.695 -17.7908
LeftHand  -1.60531 -2.52313 23.5167
RightShoulder  -4.96962e-017 0 -2.36833e-017
RightArm  -92.6434 26.6863 2.32906
RightForeArm  71.1652 78.6113 54.0829
RightHand  0.793961 -8.14206 -32.5154
LeftUpLeg  -35.3772 21.0738 11.1331
LeftLeg  32.8559 5.52126 3.06967
LeftFoot  17.545 -0.295641 2.07716
LeftToes  -51.1663 1.9075e-006 4.29692e-008
282
root  15.772 34.1706 -29.4589 -87.6916 86.944 -102.982
RightUpLeg  -8.29489 -6.3588 3.90597
RightLeg  13.377 2.19268 0.374917
RightFoot  -2.94037 -0.0125262 0.0564648
RightToes  -31.4551 -0.154068 -0.261951
Spine  -0.506278 2.68481 -6.98916
Spine1  -2.06049 5.67913 -13.651
HEad  -51.7422 30.0707 -19.9195
LeftShoulder1  -1.94126e-019 -3.10601e-018 -2.51263e-017
LeftArm  -0.0282233 -10.8203 -61.8247
LeftForeArm  59.1398 -67.8554 -21.1822
LeftHand  -1.59334 -2.71535 22.8158
RightShoulder  -4.96962e-017 0 -2.36833e-017
RightArm  -88.4343 36.8253 1.91176
RightForeArm  69.9938 78.1362 49.8085
RightHand  0.557582 -7.50842 -29.9586
LeftUpLeg  -37.5631 25.0231 8.10715
LeftLeg  33.2389 5.91776 3.341
LeftFoot  20.5368 -0.446787 2.62741
LeftToes  -52.0518 1.9075e-006 4.29692e-008
283
root  17.1469 33.4761 -29.738 -128.477 85.8611 -141.307
RightUpLeg  -6.03295 -7.81869 3.63295
RightLeg  19.1943 -1.65352 -0.460393
RightFoot  -8.96069 -0.00468456 0.496267
RightToes  -29.3412 -0.139411 -0.247361
Spine  -0.296624 3.76195 -7.28712
Spine1  -2.0347 7.99727 -14.3262
HEad  -49.5985 27.6099 -16.1295
LeftShoulder1  -1.94126e-019 -3.10601e-018 -2.51263e-017
LeftArm  5.84735 -7.37114 -68.0583
LeftForeArm  58.6132 -68.9284 -22.7249
LeftHand  -1.60547 -3.81688 20.3369
RightShoulder  -4.96962e-017 0 -2.36833e-017
RightArm  -79.78 47.2522 8.68082
RightForeArm  68.7938 77.223 43.6609
RightHand  -0.0596682 -5.13376 -24.0936
LeftUpLeg  -39.1273 25.2186 3.89641
LeftLeg  33.7063 9.65139 5.52896
LeftFoot  13.6722 -0.331287 2.92448
LeftToes  -33.4237 1.9075e-006 4.29692e-008
284
root  18.4546 32.9723 -30.0876 -154.139 81.5019 -165.578
RightUpLeg  -5.73528 -11.9425 2.76934
RightLeg  27.0214 -1.97577 -0.859096
RightFoot  -10.4161 0.00978876 0.666202
RightToes  -39.3223 -0.213092 -0.311262
Spine  -0.153107 4.0082 -7.39126
Spine1  -1.96324 8.63923 -14.5788
HEad  -46.7582 23.6712 -13.3755
LeftShoulder1  -1.94126e-019 -3.10601e-018 -2.51263e-017
LeftArm  11.0363 -4.46293 -74.584
LeftForeArm  55.6847 -68.1637 -22.0659
LeftHand  -1.62959 -4.38564 19.4788
RightShoulder  -4.96962e-017 0 -2.36833e-017
RightArm  -63.5421 55.1602 27.1815
RightForeArm  71.5662 76.5795 39.2972
RightHand  -0.511079 -2.2701 -18.7844
LeftUpLeg  -39.5474 19.1432 2.2298
LeftLeg  34.6414 10.0896 5.99418
LeftFoot  4.80525 -0.046646 1.27325
LeftToes  2.01635 1.9075e-006 4.29692e-008
285
root  19.6337 32.6907 -30.3688 -161.513 75.0133 -172.264
RightUpLeg  -7.90468 -19.0941 2.0128
RightLeg  37.5257 -0.428495 -0.307294
RightFoot  -5.9201 -0.00785425 0.408511
RightToes  -59.6663 -0.391398 -0.397349
Spine  0.382829 4.09554 -7.34804
Spine1  -1.14 9.06874 -14.5925
HEad  -44.8939 17.8476 -11.3948
LeftShoulder1  -1.94126e-019 -3.10601e-018 -2.51263e-017
LeftArm  15.344 -2.33209 -81.2556
LeftForeArm  54.306 -67.5831 -21.4762
LeftHand  -1.76527 -4.40024 21.0146
RightShoulder  -4.96962e-017 0 -2.36833e-017
RightArm  -42.3404 55.0593 54.2322
RightForeArm  72.5536 75.6756 35.2451
RightHand  -0.72418 -1.00992 -19.0937
LeftUpLeg  -39.5121 5.94913 6.02116
LeftLeg  40.3292 13.7219 10.0017
LeftFoot  4.96463 -0.0737098 1.86173
LeftToes  -16.8829 1.9075e-006 4.29692e-008
286
root  20.85 32.6062 -30.5007 -163.332 69.3338 -173.796
RightUpLeg  -12.0688 -26.5736 1.47313
RightLeg  49.1714 0.856401 0.824895
RightFoot  4.98848 -0.00331553 0.577619
RightToes  -75.5368 -0.544794 -0.417991
Spine  1.44322 4.89614 -7.70435
Spine1  0.573448 10.9787 -15.4935
HEad  -46.5823 10.5592 -8.94762
LeftShoulder1  -1.94126e-019 -3.10601e-018 -2.51263e-017
LeftArm  20.3642 -2.07597 -84.1842
LeftForeArm  57.9596 -71.3693 -26.9774
LeftHand  -1.83281 -4.73485 21.0993
RightShoulder  -4.96962e-017 0 -2.36833e-017
RightArm  -27.9433 48.3443 73.3116
RightForeArm  63.8031 71.0194 25.0831
RightHand  -0.213333 -4.61152 -31.307
LeftUpLeg  -39.3542 0.285275 7.4884
LeftLeg  41.9158 13.57 10.467
LeftFoot  3.73418 -0.0450284 1.54282
LeftToes  -19.1107 1.9075e-006 4.29692e-008
287
root  21.9062 32.6799 -30.466 -162.332 64.2797 -173.814
RightUpLeg  -18.0413 -32.7315 2.41112
RightLeg  58.9773 1.10166 1.50461
RightFoot  15.4549 -0.0700218 1.03307
RightToes  -65.9714 -0.451607 -0.410638
Spine  2.04245 5.91233 -7.78043
Spine1  1.6244 13.1224 -15.7438
HEad  -48.381 3.63133 -8.40691
LeftShoulder1  -1.94126e-019 -3.10601e-018 -2.51263e-017
LeftArm  24.0037 -3.40456 -84.0162
LeftForeArm  74.882 -77.4299 -43.3055
LeftHand  -2.04713 -5.93525 21.0844
RightShoulder  -4.96962e-017 0 -2.36833e-017
RightArm  -17.1128 43.9997 81.7735
RightForeArm  50.8087 53.9909 11.1859
RightHand  0.932529 -7.62681 -44.9533
LeftUpLeg  -39.5485 1.88953 7.76803
LeftLeg  40.2569 8.92699 6.56158
LeftFoot  3.06008 -0.021954 0.983473
LeftToes  -24.9298 1.9075e-006 4.29692e-008
288
root  22.8401 32.8447 -30.3135 -161.721 57.497 -175.757
RightUpLeg  -24.8732 -38.8502 4.63526
RightLeg  64.8754 -0.114484 -0.332251
RightFoot  14.3691 -0.0105298 0.608496
RightToes  -38.4044 -0.205864 -0.305933
Spine  2.28504 6.37489 -7.59396
Spine1  1.96625 14.4265 -15.5371
HEad  -47.0799 -3.26562 -9.82465
LeftShoulder1  -1.94126e-019 -3.10601e-018 -2.51263e-017
LeftArm  23.9658 -6.2489 -82.2503
LeftForeArm  110.686 -81.1645 -76.9501
LeftHand  -2.03832 -6.25384 20.4463
RightShoulder  -4.96962e-017 0 -2.36833e-017
RightArm  -10.243 41.9104 84.3033
RightForeArm  53.7076 31.8178 4.01892
RightHand  -0.698562 -1.85346 -22.6957
LeftUpLeg  -40.901 3.15802 7.04691
LeftLeg  36.9576 3.22808 2.11054
LeftFoot  3.70029 -0.0163803 0.668631
LeftToes  -29.5231 1.9075e-006 4.29692e-008
289
root  23.8215 32.9669 -30.1993 -160.766 49.6368 -177.446
RightUpLeg  -31.067 -42.4961 6.78873
RightLeg  66.7732 -0.845498 -1.80523
RightFoot  9.41796 -0.0106749 0.646156
RightToes  -40.937 -0.226011 -0.320354
Spine  2.9217 6.99864 -7.13944
Spine1  2.62323 16.438 -15.123
HEad  -45.4476 -10.6071 -10.3132
LeftShoulder1  -1.94126e-019 -3.10601e-018 -2.51263e-017
LeftArm  20.5595 -11.0714 -80.7966
LeftForeArm  130.203 -81.3039 -97.1671
LeftHand  -2.0069 -5.77231 20.974
RightShoulder  -4.96962e-017 0 -2.36833e-017
RightArm  1.93314 36.4904 81.9242
RightForeArm  59.0727 19.2903 1.31243
RightHand  0.0847447 7.46878 0.397172
LeftUpLeg  -42.8041 -1.8843 8.47053
LeftLeg  34.5999 1.37531 0.81814
LeftFoot  5.21571 -0.0223869 0.653038
LeftToes  -34.4093 1.9075e-006 4.29692e-008
290
root  24.8826 33.1188 -30.0819 -160.023 43.9163 -178.391
RightUpLeg  -35.0431 -41.3486 6.46052
RightLeg  65.6793 -0.655811 -1.36341
RightFoot  5.91158 -0.0102199 0.698661
RightToes  -37.9079 -0.20199 -0.303002
Spine  3.55228 7.1615 -6.297
Spine1  4.37349 16.4947 -13.1079
HEad  -46.2645 -16.5365 -10.5358
LeftShoulder1  -1.94126e-019 -3.10601e-018 -2.51263e-017
LeftArm  12.5186 -15.8143 -78.2367
LeftForeArm  120.692 -81.1527 -92.7694
LeftHand  -1.77318 -4.47634 20.9494
RightShoulder  -4.96962e-017 0 -2.36833e-017
RightArm  13.4331 27.311 80.9066
RightForeArm  64.6865 16.9838 0.791388
RightHand  -0.163192 10.514 -1.60233
LeftUpLeg  -43.2167 -5.9363 10.5401
LeftLeg  31.9769 0.741649 0.394311
LeftFoot  6.47544 -0.0199562 0.514297
LeftToes  -39.9996 1.9075e-006 4.29692e-008
291
root  25.9701 33.2754 -29.9679 -159.256 39.6134 -179.181
RightUpLeg  -37.3592 -36.9554 3.88426
RightLeg  62.0813 -1.0601 -1.82593
RightFoot  1.11773 -0.00335304 0.686291
RightToes  -34.4476 -0.175716 -0.281659
Spine  3.87307 6.66375 -5.39882
Spine1  5.5831 15.1343 -10.9279
HEad  -48.0829 -19.1636 -10.2274
LeftShoulder1  -1.94126e-019 -3.10601e-018 -2.51263e-017
LeftArm  0.711591 -17.9985 -74.3211
LeftForeArm  90.3064 -80.2008 -67.0556
LeftHand  -1.39389 -2.98486 19.4235
RightShoulder  -4.96962e-017 0 -2.36833e-017
RightArm  4.70318 18.3722 82.0701
RightForeArm  69.423 16.4054 0.734346
RightHand  -1.2892 9.35061 -10.4927
LeftUpLeg  -42.6227 -8.06727 12.1388
LeftLeg  28.2352 0.0231363 0.00631469
LeftFoot  7.56104 -0.0112892 0.332361
LeftToes  -42.4851 1.9075e-006 4.29692e-008
